HIERARCHY
ROOT Hips
{
 OFFSET 0.000000 0.000000 0.000000
 CHANNELS 6 Xposition Yposition Zposition Yrotation Xrotation Zrotation
 JOINT Chest
 {
  OFFSET 0.000000 9.585900 0.002600
  CHANNELS 3 Yrotation Xrotation Zrotation
  JOINT Chest2
  {
   OFFSET 0.000000 9.601200 -0.005300
   CHANNELS 3 Yrotation Xrotation Zrotation
   JOINT Chest3
   {
    OFFSET 0.000000 9.561800 0.000000
    CHANNELS 3 Yrotation Xrotation Zrotation
    JOINT Chest4
    {
     OFFSET 0.000000 9.552100 0.000000
     CHANNELS 3 Yrotation Xrotation Zrotation
     JOINT Neck
     {
      OFFSET 0.000000 14.453000 0.000000
      CHANNELS 3 Yrotation Xrotation Zrotation
      JOINT Head
      {
       OFFSET 0.000000 8.936500 -0.011300
       CHANNELS 3 Yrotation Xrotation Zrotation
       End Site
       {
        OFFSET 0.000000 17.073600 -0.006000
       }
      }
     }
     JOINT RightCollar
     {
      OFFSET -2.921100 9.558500 0.000000
      CHANNELS 3 Yrotation Xrotation Zrotation
      JOINT RightShoulder
      {
       OFFSET -13.519700 0.000000 0.000000
       CHANNELS 3 Yrotation Xrotation Zrotation
       JOINT RightElbow
       {
        OFFSET 0.000000 -29.696600 0.000000
        CHANNELS 3 Yrotation Xrotation Zrotation
        JOINT RightWrist
        {
         OFFSET 0.000000 -24.004700 0.000000
         CHANNELS 3 Yrotation Xrotation Zrotation
         End Site
         {
          OFFSET 0.000000 -17.728500 0.000000
         }
        }
       }
      }
     }
     JOINT LeftCollar
     {
      OFFSET 2.921100 9.558500 0.000000
      CHANNELS 3 Yrotation Xrotation Zrotation
      JOINT LeftShoulder
      {
       OFFSET 13.519700 0.000000 0.000000
       CHANNELS 3 Yrotation Xrotation Zrotation
       JOINT LeftElbow
       {
        OFFSET 0.000000 -29.696600 0.000000
        CHANNELS 3 Yrotation Xrotation Zrotation
        JOINT LeftWrist
        {
         OFFSET 0.000000 -24.004700 0.000000
         CHANNELS 3 Yrotation Xrotation Zrotation
         End Site
         {
          OFFSET 0.000000 -17.728500 0.000000
         }
        }
       }
      }
     }
    }
   }
  }
 }
 JOINT RightHip
 {
  OFFSET -7.771700 -0.012900 -0.001300
  CHANNELS 3 Yrotation Xrotation Zrotation
  JOINT RightKnee
  {
   OFFSET 0.000000 -40.869800 0.001200
   CHANNELS 3 Yrotation Xrotation Zrotation
   JOINT RightAnkle
   {
    OFFSET 0.000000 -39.717900 0.002100
    CHANNELS 3 Yrotation Xrotation Zrotation
    JOINT RightToe
    {
     OFFSET 0.000000 -4.965400 11.033500
     CHANNELS 3 Yrotation Xrotation Zrotation
     End Site
     {
      OFFSET 0.000000 -1.423100 5.872300
     }
    }
   }
  }
 }
 JOINT LeftHip
 {
  OFFSET 7.771700 -0.012900 -0.001300
  CHANNELS 3 Yrotation Xrotation Zrotation
  JOINT LeftKnee
  {
   OFFSET 0.000000 -40.869800 0.001200
   CHANNELS 3 Yrotation Xrotation Zrotation
   JOINT LeftAnkle
   {
    OFFSET 0.000000 -39.717900 0.002100
    CHANNELS 3 Yrotation Xrotation Zrotation
    JOINT LeftToe
    {
     OFFSET 0.000000 -4.965400 11.033500
     CHANNELS 3 Yrotation Xrotation Zrotation
     End Site
     {
      OFFSET 0.000000 -1.423100 5.872300
     }
    }
   }
  }
 }
}
MOTION
Frames: 8
Frame Time: 0.008333
0.000000 85.388000 0.000000 0.000000 -5.767877 0.000000 0.000000 11.653817 0.000000 0.000000 -5.885947 0.000000 0.000000 -0.000000 0.000000 0.000000 -0.000000 0.000000 0.000000 12.528835 0.000000 0.000000 0.711642 0.000000 0.000000 -0.000000 0.000000 0.000000 0.000000 -90.000000 0.000000 -2.309062 0.000000 0.000000 2.309062 0.000000 0.000000 -0.000000 0.000000 0.000000 -0.000000 90.000000 0.000000 -2.309062 0.000000 0.000000 2.309062 0.000000 0.000000 8.520406 0.000000 0.000000 1.905762 0.000000 -0.000000 -4.658285 0.000000 0.000000 -0.000000 0.000000 0.000000 8.520406 0.000000 0.000000 1.905762 0.000000 -0.000000 -4.658285 0.000000 0.000000 -0.000000 0.000000
-67.693755 63.257848 11.482387 168.270505 -50.122391 -2.775767 7.026609 25.867767 4.447427 1.053483 4.415620 0.399359 1.692506 6.990509 0.664384 5.569368 21.086368 2.701273 4.212034 19.526737 11.068875 4.322880 0.554465 18.917796 5.354512 13.490971 6.293068 -24.897519 -27.550913 -9.616838 91.483964 -67.085823 -102.226105 29.598609 5.616048 2.635087 -9.642048 7.259361 -0.439921 8.461850 -29.105912 19.600756 -49.811340 -55.968704 68.060089 -5.749854 -9.450433 -0.132205 -6.098368 -10.155795 8.549006 -33.417341 73.620250 -33.656208 0.547908 -14.367818 -0.289796 -0.431538 0.786835 -0.162297 -1.307417 -16.136925 -0.757794 11.206072 62.098948 3.547870 -6.658015 -7.098710 0.602646 -0.039810 -0.198168 -0.010332
-67.690741 63.254732 11.483920 168.260526 -50.083704 -2.749832 7.028989 25.904670 4.463366 1.057630 4.438309 0.410459 1.691289 6.980334 0.655704 5.570876 21.097564 2.705854 4.282394 19.457554 11.010344 4.459851 0.414929 18.791483 5.316566 13.418620 6.243360 -25.013288 -27.407465 -9.588719 91.431816 -67.043506 -102.325298 29.614139 5.599339 2.745572 -9.644748 7.238661 -0.433433 8.677151 -29.038081 19.546482 -49.883917 -56.017604 68.196869 -5.748569 -9.436009 -0.200186 -6.091212 -10.202408 8.535742 -33.400965 73.637782 -33.635764 0.539039 -14.379109 -0.304963 -0.429247 0.792156 -0.161677 -1.302842 -16.176371 -0.776080 11.202137 62.096537 3.541094 -6.619995 -7.097055 0.604177 -0.040154 -0.194874 -0.013300
-67.686900 63.252109 11.485746 168.237973 -50.045096 -2.713220 7.048433 25.986080 4.510687 1.054257 4.411076 0.391764 1.689084 6.971000 0.646379 5.572017 21.109594 2.709324 4.347538 19.393063 10.954338 4.587436 0.285047 18.671059 5.289587 13.392371 6.215036 -25.101605 -27.322520 -9.570391 91.382002 -67.009293 -102.425227 29.625987 5.577264 2.853291 -9.645901 7.217778 -0.433244 8.863727 -28.980448 19.498566 -49.954158 -56.070671 68.328564 -5.752005 -9.430224 -0.262816 -6.072809 -10.258444 8.522842 -33.410463 73.663387 -33.635071 0.519764 -14.369241 -0.320475 -0.416764 0.774751 -0.160247 -1.286560 -16.213996 -0.790086 11.189304 62.092135 3.531250 -6.619756 -7.092417 0.598644 -0.014357 -0.190024 -0.010570
-67.685556 63.244747 11.491876 168.192072 -49.966561 -2.644817 7.061462 25.985130 4.511762 1.052217 4.371394 0.364642 1.695709 7.011175 0.667230 5.573934 21.122516 2.711728 4.407090 19.333454 10.900917 4.704893 0.164973 18.556773 5.301003 13.385213 6.217864 -25.191562 -27.271767 -9.573702 91.346188 -66.981181 -102.533640 29.633145 5.553624 2.956457 -9.649241 7.197627 -0.437117 9.025573 -28.934073 19.452897 -50.024661 -56.122967 68.458499 -5.760471 -9.432632 -0.323537 -6.047034 -10.362618 8.509831 -33.448201 73.689083 -33.672398 0.476953 -14.373191 -0.334266 -0.383338 0.772433 -0.150903 -1.258758 -16.294459 -0.816203 11.183994 62.083623 3.525382 -6.636096 -7.083748 0.589426 -0.033718 -0.180221 -0.011462
-67.681933 63.242961 11.494885 168.156697 -49.927506 -2.591215 7.069849 25.975487 4.496051 1.054197 4.376809 0.366606 1.702117 7.047798 0.685031 5.577434 21.136295 2.713086 4.459768 19.278584 10.850849 4.809386 0.054693 18.450486 5.309450 13.348775 6.214283 -25.257735 -27.199266 -9.589682 91.322774 -66.958296 -102.643860 29.642851 5.534841 3.055790 -9.666695 7.146851 -0.450280 9.168538 -28.871173 19.420864 -50.090512 -56.169983 68.585450 -5.769073 -9.441063 -0.389103 -6.024552 -10.413733 8.491484 -33.440213 73.705772 -33.662103 0.461677 -14.382102 -0.347745 -0.378920 0.777168 -0.144759 -1.245019 -16.324721 -0.845081 11.206468 62.064884 3.542551 -6.615267 -7.093736 0.582724 -0.059106 -0.159170 -0.016956
-67.677344 63.243271 11.497543 168.130537 -49.901500 -2.548508 7.073930 25.976666 4.484193 1.061420 4.435862 0.402398 1.702525 7.028608 0.665952 5.582305 21.149475 2.713671 4.504074 19.229751 10.804298 4.898415 -0.043068 18.352978 5.305179 13.297834 6.201834 -25.298316 -27.120284 -9.608252 91.304958 -66.939035 -102.747806 29.660928 5.518006 3.156301 -9.685656 7.100500 -0.460907 9.287956 -28.822922 19.388261 -50.148502 -56.212377 68.703416 -5.774632 -9.448742 -0.458553 -6.006182 -10.445859 8.473334 -33.420444 73.716315 -33.638797 0.457930 -14.393370 -0.359133 -0.377731 0.784971 -0.147038 -1.232840 -16.343896 -0.874481 11.221607 62.048693 3.566793 -6.603248 -7.093738 0.566040 -0.026807 -0.153264 -0.013469
-67.673261 63.243010 11.501758 168.097650 -49.868907 -2.499312 7.089706 25.991864 4.493014 1.058348 4.417016 0.384260 1.702922 7.032778 0.663971 5.602110 21.187469 2.733140 4.538869 19.187494 10.760188 4.970379 -0.127302 18.262718 5.317954 13.256501 6.202516 -25.337254 -27.065294 -9.631967 91.287380 -66.918363 -102.842261 29.681516 5.498157 3.259697 -9.679420 7.137383 -0.463383 9.367126 -28.863535 19.336634 -50.240918 -56.266897 68.803800 -5.786179 -9.434328 -0.490645 -5.987495 -10.490216 8.456195 -33.415939 73.729389 -33.633685 0.452539 -14.393010 -0.370723 -0.373860 0.781523 -0.147835 -1.214230 -16.369647 -0.896480 11.222076 62.032498 3.566996 -6.602500 -7.087757 0.557161 -0.020634 -0.152220 -0.012610
